/* XPM */
static const char*right[]={
"16 16 3 1",
"# c #000000",
". c None",
"a c #c0ffff",
"........##......",
"........###.....",
"........####....",
"........##a##...",
"##########aa##..",
"##########aaa##.",
"##aaaaaaaaaaaa##",
"##aaaaaaaaaaaaa#",
"##aaaaaaaaaaaaa#",
"##aaaaaaaaaaaa#.",
".#########aaa#..",
".........#aa#...",
".........#a#....",
".........##.....",
".........#......",
"................"};
