/* XPM */
static const char*scan[]={
"16 16 3 1",
"# c #000000",
". c None",
"a c #ffffff",
"...#####........",
"..#.....#.......",
".#...aa..#......",
"#....aa...#.....",
"#.........#.....",
"#.........#.....",
"#.........#.....",
"#.........#.....",
".#.......##.....",
"..#.....#.##....",
"...#######.##...",
".........##.##..",
"..........##.##.",
"...........##.##",
"............###.",
".............#.."};
