/* XPM */
static const char*browsersearch[]={
"16 16 4 1",
"# c #000000",
". c None",
"b c #dcdcdc",
"a c #ffffff",
"................",
".######..######.",
".#ab..#..#ab..#.",
".######..######.",
".#ab..#..#ab..#.",
".#ab..#..#ab..#.",
".#ab..####ab..#.",
".#ab.######b..#.",
".#ab.#aa..#b..#.",
".#ab.######b..#.",
".#ab..####ab..#.",
"..#####..#####..",
"....##....##....",
"...#a.#..#a.#...",
"...####..####...",
"................"};
