/* XPM */
static const char*activitysendsignal_xpm[]={
"16 16 2 1",
"# c #000000",
". c #ffffff",
"................",
"................",
"................",
"###########.....",
"#..........#....",
"#...........#...",
"#............#..",
"#.............#.",
"#..............#",
"#.............#.",
"#............#..",
"#...........#...",
"#..........#....",
"###########.....",
"................",
"................"};

