/* XPM */
static const char*action_xpm[]={
"16 16 2 1",
"# c #000000",
". c #ffffff",
"................",
"................",
"................",
"################",
"#..............#",
"#..............#",
"#..............#",
"#..............#",
"#..............#",
"#..............#",
"#..............#",
"#..............#",
"#..............#",
"################",
"................",
"................"};

