/* XPM */
static const char*activitydiagram_xpm[]={
"16 16 2 1",
"# c #000000",
". c #ffffff",
"################",
"#..............#",
"#..#######.....#",
"#...#...#......#",
"#....#.#.......#",
"#.....#.#####..#",
"#....#.#....#..#",
"#...#...#...#..#",
"#..#######.###.#",
"#...........#..#",
"#.......########",
"#......#.......#",
"#.....#........#",
"#.....#........#",
"#.....#........#",
"################"};
