/* XPM */
static const char*actionmarked_xpm[]={
"16 16 3 1",
"# c #000000",
". c #ffffff",
"r c #ff0000",
"................",
"................",
"rrrrrrrrrrrrrrrr",
"################",
"#rrrrrrrrrrrrrr#",
"#rrrrrrrrrrrrrr#",
"#rrrrrrrrrrrrrr#",
"#rrrrrrrrrrrrrr#",
"#rrrrrrrrrrrrrr#",
"#rrrrrrrrrrrrrr#",
"#rrrrrrrrrrrrrr#",
"#rrrrrrrrrrrrrr#",
"#rrrrrrrrrrrrrr#",
"################",
"rrrrrrrrrrrrrrrr",
"................"};

