/* XPM */
static const char*actor_button[]={
"16 16 2 1",
"# c #000000",
". c None",
"......###.......",
".....#...#......",
".....#...#......",
".....#...#......",
"......###.......",
".......#........",
".......#........",
"...#########....",
".......#........",
".......#........",
".......#........",
"......#.#.......",
"......#.#.......",
".....#...#......",
"....#.....#.....",
"....#.....#....."};
