/* XPM */
static const char *align_right[]={
"16 16 2 1",
"# c #000000",
". c #ffffff",
"..............#.",
".############.#.",
".#..........#.#.",
".#..........#.#.",
".#..........#.#.",
".#..........#.#.",
".############.#.",
"..............#.",
"..............#.",
"......#######.#.",
"......#.....#.#.",
"......#.....#.#.",
"......#.....#.#.",
"......#.....#.#.",
"......#######.#.",
"..............#."};
