/* XPM */
static const char*artifact_xpm[]={
"16 16 3 1",
"# c #000000",
"_ c #ffffff",
". c None",
"................",
"................",
"....#######.....",
"....#____#_#....",
"....#____#__#...",
"....#____#___#..",
"....#____#####..",
"....#________#..",
"....#________#..",
"....#________#..",
"....#________#..",
"....#________#..",
"....#________#..",
"....#________#..",
"....##########..",
"................"};
