/* XPM */
static const char*choicemarked_xpm[]={
"16 16 2 1",
"# c #000000",
". c #ff0000",
"................",
"........#.......",
".......#.#......",
".......#.#......",
"......#...#.....",
"......#...#.....",
".....#.....#....",
".....#.....#....",
"....#.......#...",
".....#.....#....",
".....#.....#....",
"......#...#.....",
"......#...#.....",
".......#.#......",
".......#.#......",
"........#......."};
