/* XPM */
static const char*choice_big_pixmap[]={
"25 37 3 1",
"# c #000000",
"_ c #ffffff",
". c None",
".........................",
"............#............",
"...........#_#...........",
"...........#_#...........",
"..........#___#..........",
"..........#___#..........",
".........#_____#.........",
".........#_____#.........",
"........#_______#........",
"........#_______#........",
".......#_________#.......",
".......#_________#.......",
"......#___________#......",
"......#___________#......",
".....#_____________#.....",
".....#_____________#.....",
"....#_______________#....",
"....#_______________#....",
"...#_________________#...",
"....#_______________#....",
"....#_______________#....",
".....#_____________#.....",
".....#_____________#.....",
"......#___________#......",
"......#___________#......",
".......#_________#.......",
".......#_________#.......",
"........#_______#........",
"........#_______#........",
".........#_____#.........",
".........#_____#.........",
"..........#___#..........",
"..........#___#..........",
"...........#_#...........",
"...........#_#...........",
"............#............",
"........................."};
