/* XPM */
static const char*choice_shadow_pixmap[]={
"17 25 4 1",
"# c #000000",
"_ c #ffffff",
"@ c #909090",
". c None",
".................",
"........#........",
".......#_#.......",
".......#_#.......",
"......#___#......",
"......#___#......",
".....#_____#.....",
".....#_____#.....",
"....#_______#....",
"....#_______#....",
"...#_________#...",
"...#_________#...",
"..#___________#..",
"...#_________#@@.",
"...#_________#@@.",
"....#_______#@@@.",
"....#_______#@@@.",
".....#_____#@@@..",
".....#_____#@@@..",
"......#___#@@@...",
"......#___#@@@...",
".......#_#@@@....",
".......#_#@@@....",
"........#@@@.....",
"................."};
