/* XPM */
static const char*classes_xpm[]={
"16 16 3 1",
"# c #000000",
"_ c #ffffc0",
". c None",
".#########......",
"#_________#.....",
"#_#####____####.",
"#_#___#________#",
"#_#####________#",
"#_#___#________#",
"#_#####________#",
"#_#___#__#####_#",
"#_#####__#___#_#",
"#________#####_#",
"#________#___#_#",
"#________#####_#",
"#________#___#_#",
"#________#####_#",
"#______________#",
"################"};
