/* XPM */
static const char*componentview_xpm[]={
"16 16 3 1",
"# c #000000",
"_ c #ffffc0",
". c None",
".#########......",
"#_________#.....",
"#__#####___####.",
"#__#___#_______#",
"#_###__#_______#",
"#_###__#__######",
"#__#___#__#____#",
"#_###__#_###___#",
"#_###__#_###___#",
"#__#___#__#____#",
"#__#####_###___#",
"#________###___#",
"#_________#____#",
"#_________######",
"#______________#",
"################"};
