/* XPM */
static const char*componentdiagram_xpm[]={
"16 16 2 1",
". c #ffffff",
"# c #000000",
"################",
"#.........#....#",
"#........###...#",
"#........###...#",
"#.........#....#",
"#.######.###...#",
"#.#....#.###...#",
"####...#..#....#",
"####...#..######",
"#.#....#....#..#",
"####...#....#..#",
"####...######..#",
"#.#....#.......#",
"#.######.......#",
"#..............#",
"################"};
