/* XPM */
static const char*component_xpm[]={
"16 16 3 1",
"# c #000000",
"_ c #ffffff",
". c None",
"................",
"................",
"....###########.",
"....#_________#.",
"....#_________#.",
"..#####_______#.",
"..#___#_______#.",
"..#####_______#.",
"....#_________#.",
"..#####_______#.",
"..#___#_______#.",
"..#####_______#.",
"....#_________#.",
"....#_________#.",
"....###########.",
"................"};
