/* XPM */
static const char*decision_button[]={
"16 16 2 1",
"# c #000000",
". c None",
"................",
".......#..####..",
"......#.#...##..",
"......#.#..#.#..",
".....#...##..#..",
".....#...#......",
".#..#.....#..#..",
"..#.#.....#...#.",
"####.......#####",
"..#.#.....#...#.",
".#..#.....#..#..",
".....#...#......",
".....#...##..#..",
"......#.#..#.#..",
"......#.#...##..",
".......#..####.."};
