/* XPM */
static const char*deephistory_big_pixmap[]={
"25 25 3 1",
"# c #000000",
"_ c #ffffff",
". c None",
".........................",
"..........#####..........",
".......###_____###.......",
"......#___________#......",
"....##_____________##....",
"....#___________#___#....",
"...#_________#__#__#_#...",
"..#___________#_#_#___#..",
"..#_#_____#____#_#____#..",
"..#_#_____#_#########_#..",
".#__#_____#____#_#_____#.",
".#__#_____#___#_#_#____#.",
".#__#######__#__#__#___#.",
".#__#_____#_____#______#.",
".#__#_____#____________#.",
"..#_#_____#___________#..",
"..#_#_____#___________#..",
"..#___________________#..",
"...#_________________#...",
"....#_______________#....",
"....##_____________##....",
"......#___________#......",
".......###_____###.......",
"..........#####..........",
"........................."};

