/* XPM */
static const char*deephistory_pixmap[]={
"17 17 3 1",
"# c #000000",
"_ c #ffffff",
". c None",
".................",
"......#####......",
"....##_____##....",
"...#_________#...",
"..#___________#..",
"..#______#_#_##..",
".#__#__#__###__#.",
".#__#__#_#####_#.",
".#__####__###__#.",
".#__#__#_#_#_#_#.",
".#__#__#_______#.",
"..#___________#..",
"..#___________#..",
"...#_________#...",
"....##_____##....",
"......#####......",
"................."};
