/* XPM */
static const char*deletedactor_xpm[]={
"16 16 3 1",
"a c #000000",
"# c #ffffff",
". c #ff0000",
"..####aaa#####..",
"#..##a###a###..#",
"##..#a###a##..##",
"###..a###a#..###",
"####..aaa#..####",
"#####..a#..#####",
"######....######",
"###aaaa..aaa####",
"######....######",
"#####..a#..#####",
"####..#a##..####",
"###..#a#a##..###",
"##..##a#a###..##",
"#..##a###a###..#",
"..##a#####a###..",
".###a#####a####."};
