/* XPM */
static const char*deletedprofile_xpm[]={
"16 16 4 1",
"# c #000000",
"_ c #ffffc0",
"r c #ff0000",
". c None",
"rr########....rr",
"#rr_______#..rr.",
"#_rr_______#rr#.",
"#__rr______rr__#",
"#___rr_#__rr___#",
"#___#rr__rr____#",
"#__#_#rrrr_____#",
"#_#_#__rr_#____#",
"#__#_#rrrr_#___#",
"#___#rr__rr_#__#",
"#___rr_#__rr_#_#",
"#__rr_____#rr__#",
"#_rr_____#_#rr_#",
"#rr_____#_#__rr#",
"rr____________rr",
"r##############r"};
