/* XPM */
static const char*deletedcomponentdiagram_xpm[]={
"16 16 3 1",
". c #ffffff",
"# c #000000",
"r c #ff0000",
"r##############r",
"rr........#...rr",
"#rr......###.rr#",
"#.rr.....###rr.#",
"#..rr.....#rr..#",
"#.##rr##.#rr...#",
"#.#..rr#.rr#...#",
"####..rrrr#....#",
"####...rr.######",
"#.#...rrrr..#..#",
"####.rr#.rr.#..#",
"####rr.###rr#..#",
"#.#rr..#...rr..#",
"#.rr####....rr.#",
"#rr..........rr#",
"rr############rr"};
