/* XPM */
static const char*deletedcomponentview_xpm[]={
"16 16 4 1",
"# c #000000",
"_ c #ffffc0",
". c None",
"r c #ff0000",
"r#########.....r",
"rr________#...rr",
"#rr#####___##rr.",
"#_rr___#____rr_#",
"#_#rr__#___rr__#",
"#_##rr_#__rr####",
"#__#_rr#_rr____#",
"#_###_rrrr##___#",
"#_###__rr###___#",
"#__#__rrrr#____#",
"#__##rr#_rr#___#",
"#___rr___#rr___#",
"#__rr_____#rr__#",
"#_rr______##rr##",
"#rr__________rr#",
"rr############rr"};
