/* XPM */
static const char*deletedclasses_xpm[]={
"16 16 4 1",
"# c #000000",
"_ c #ffffc0",
". c None",
"r c #ff0000",
"r#########.....r",
"rr________#...rr",
"#rr####____##rr.",
"#_rr__#_____rr_#",
"#_#rr##____rr__#",
"#_#_rr#___rr___#",
"#_###rr__rr____#",
"#_#___rrrr####_#",
"#_#####rr#___#_#",
"#_____rrrr####_#",
"#____rr__rr__#_#",
"#___rr___#rr##_#",
"#__rr____#_rr#_#",
"#_rr_____###rr_#",
"#rr__________rr#",
"rr############rr"};
