/* XPM */
static const char*deletedattribute_xpm[]={
"16 16 4 1",
"a c #00ff00",
"b c #000000",
". c None",
"# c #ff0000",
"................",
"................",
"................",
"................",
"................",
"#aaaaaaaaaaaaaa#",
"##aaaaaaaaaaaa##",
"aa##baaaaaaa##aa",
"aaaa##aaaa##aaaa",
"aaabbb####aaaaaa",
"aabaab####aaaaaa",
"aaba##aaaa##aaaa",
"aa##babaaaaa##aa",
"##aaaaaaaaaaaa##",
"#aaaaaaaaaaaaaa#",
"................"};
