/* XPM */
static const char*deletedoperation_xpm[]={
"16 16 4 1",
"a c #00ffff",
"b c #000000",
". c None",
"# c #ff0000",
"................",
"................",
"................",
"................",
"................",
"#aaaaaaaaaaaaaa#",
"##aaaaaaaaaaa##a",
"aa##baaaaaaa##aa",
"abaa##aaaa##aaaa",
"abaaab####aaaaaa",
"abaaab####aaaaaa",
"abaa##aaaa##aaaa",
"aa##baaaaaaa##aa",
"##aaaaaaaaaaaa##",
"#aaaaaaaaaaaaaa#",
"................"};
