/* XPM */
static const char*deletedextramember_xpm[]={
"16 16 4 1",
"# c #000000",
". c None",
"_ c #ffffff",
"r c #ff0000",
"................",
"................",
"................",
"................",
"................",
"r______________r",
"rr____________rr",
"__rr#__#___#rr__",
"__#_rr__#_rr____",
"__####rrrr______",
"__#___rrrr#_____",
"___#rr_#__rr____",
"__rr________rr__",
"rr____________rr",
"r______________r",
"................"};
