/* XPM */
static const char*deletedusecase_xpm[]={
"16 16 3 1",
"a c #000000",
"# c #ffffff",
". c #ff0000",
"..############..",
"#..##########..#",
"##..########..##",
"###..aaaaaa..###",
"###a..####..a###",
"#aa##..##..##aa#",
"a#####....#####a",
"a######..######a",
"a#####....#####a",
"a####..##..####a",
"a###..####..###a",
"#aa..######..aa#",
"##..a######a..##",
"#..##aaaaaa##..#",
"..############..",
".##############."};
