/* XPM */
static const char*deletedfinal_xpm[]={
"16 16 3 1",
"# c #000000",
". c #ffffff",
"r c #ff0000",
"r..............r",
"rr.....###....rr",
".rr..##...##.rr.",
"..rr#.......rr..",
"...rr..###.rr#..",
"..#.rr####rr#.#.",
"..#..rr##rr#..#.",
".#..##rrrr###..#",
".#..###rr####..#",
".#..##rrrr###..#",
"..#..rr##rr#..#.",
"..#.rr####rr..#.",
"...rr..###.rr#..",
"..rr#.......rr..",
".rr..##...##.rr.",
"rr.....###....rr"};
