/* XPM */
static const char*dependency_button[]={
"16 16 2 1",
"# c #000000",
". c None",
"................",
"................",
"................",
"................",
"................",
"...........#....",
"............#...",
".............#..",
".##..##..##..##.",
".............#..",
"............#...",
"...........#....",
"................",
"................",
"................",
"................"};
