/* XPM */
static const char*deploymentnode_xpm[]={
"16 16 3 1",
"# c #000000",
"_ c #ffffff",
". c None",
"................",
"....###########.",
"...#_________##.",
"..#_________#_#.",
".###########__#.",
".#_________#__#.",
".#_________#__#.",
".#_________#__#.",
".#_________#__#.",
".#_________#__#.",
".#_________#__#.",
".#_________#__#.",
".#_________#_#..",
".#_________##...",
".###########....",
"................"};
