/* XPM */
static const char*down_xpm[]={
"16 16 3 1",
"# c #000000",
". c None",
"a c #c0ffff",
"....######......",
"....#######.....",
"....##aaaa#.....",
"....##aaaa#.....",
"....##aaaa#.....",
"....##aaaa#.....",
"....##aaaa#.....",
"....##aaaa#.....",
"######aaaa#.....",
"######aaaa#####.",
".##aaaaaaaaaa#..",
"..##aaaaaaaa#...",
"...##aaaaaa#....",
"....##aaaa#.....",
".....##aa#......",
"......###......."};
