/* XPM */
static const char*edit_button[]={
"17 16 2 1",
"# c #000000",
". c None",
".................",
".................",
".................",
".........#..#..#.",
".........#.....#.",
".##...####..#.###",
"#..#.#...#..#..#.",
"#..#.#...#..#..#.",
"####.#...#..#..#.",
"#....#...#..#..#.",
"#....#...#..#..#.",
".###..####..#..##",
".................",
".................",
".................",
"................."};
