/* XPM */
static const char*exitpoint_pixmap[]={
"15 15 3 1",
"# c #000000",
"_ c #ffffff",
". c None",
"...............",
"...............",
"......###......",
"....##___##....",
"...##_____##...",
"...#_#___#_#...",
"..#___#_#___#..",
"..#____#____#..",
"..#___#_#___#..",
"...#_#___#_#...",
"...##_____##...",
"....##___##....",
"......###......",
"...............",
"..............."};
