/* XPM */
static const char*exitpoint_big_pixmap[]={
"19 19 3 1",
"# c #000000",
"_ c #ffffff",
". c None",
"...................",
".......#####.......",
".....##_____##.....",
"....#_________#....",
"...##_________##...",
"..#__#_______#__#..",
"..#___#_____#___#..",
".#_____#___#_____#.",
".#______#_#______#.",
".#_______#_______#.",
".#______#_#______#.",
".#_____#___#_____#.",
"..#___#_____#___#..",
"..#__#_______#__#..",
"...##_________##...",
"....#_________#....",
".....##_____##.....",
".......#####.......",
"..................."};

