/* XPM */
static const char*expansionnodemarked_xpm[]={
"16 16 2 1",
"# c #000000",
". c #ff0000",
"................",
"................",
"................",
"................",
"................",
"................",
"..#############.",
"..#...#...#...#.",
"..#...#...#...#.",
"..#...#...#...#.",
"..#############.",
"................",
"................",
"................",
"................",
"................"};
