/* XPM */
static const char*extramember_xpm[]={
"16 16 3 1",
"# c #000000",
". c None",
"_ c #ffffff",
"................",
"................",
"................",
"................",
"................",
"________________",
"________________",
"___##__#___#____",
"__#__#__#_#_____",
"__####___#______",
"__#_____#_#_____",
"___###_#___#____",
"________________",
"________________",
"________________",
"................"};
