/* XPM */
static const char*final_pixmap[]={
"17 17 3 1",
"# c #000000",
"_ c #ffffff",
". c None",
".................",
".......###.......",
".....##___##.....",
"....#_______#....",
"...#___###___#...",
"..#__#######__#..",
"..#__#######__#..",
".#__#########__#.",
".#__#########__#.",
".#__#########__#.",
"..#__#######__#..",
"..#__#######__#..",
"...#___###___#...",
"....#_______#....",
".....##___##.....",
".......###.......",
"................."};
