/* XPM */
static const char*finalmarked_xpm[]={
"16 16 2 1",
"# c #000000",
". c #ff0000",

"................",
".......###......",
".....##...##....",
"....#.......#...",
"...#...###...#..",
"..#..#######..#.",
"..#..#######..#.",
".#..#########..#",
".#..#########..#",
".#..#########..#",
"..#..#######..#.",
"..#..#######..#.",
"...#...###...#..",
"....#.......#...",
".....##...##....",
".......###......"};
