/* XPM */
static const char*final_big_pixmap[]={
"25 25 3 1",
"# c #000000",
"_ c #ffffff",
". c None",
".........................",
"..........#####..........",
".......###_____###.......",
"......#___________#......",
"....##____#####____##....",
"....#___#########___#....",
"...#___###########___#...",
"..#___#############___#..",
"..#__###############__#..",
"..#__###############__#..",
".#__#################__#.",
".#__#################__#.",
".#__#################__#.",
".#__#################__#.",
".#__#################__#.",
"..#__###############__#..",
"..#__###############__#..",
"..#___#############___#..",
"...#___###########___#...",
"....#___#########___#....",
"....##____#####____##....",
"......#___________#......",
".......###_____###.......",
"..........#####..........",
"........................."};

