/* XPM */
static const char*fitscale_button[]={
"20 16 2 1",
"# c #000000",
". c None",
"....................",
"....................",
"....................",
"..###..#....##...#..",
".#.....#...#..#.#...",
"###.#.###..#..#.#...",
".#..#..#....##.#....",
".#..#..#.......#....",
".#..#..#......#..##.",
".#..#..#......#.#..#",
".#..#..#......#.#..#",
".#..#..##....#...##.",
"....................",
"....................",
"....................",
"...................."};
