/* XPM */
static const char *geometry_vhv[]={
"16 16 2 1",
"# c #000000",
". c None",
".............##.",
".............##.",
".............##.",
".............##.",
".............##.",
".............##.",
".............##.",
".##############.",
".##############.",
".##.............",
".##.............",
".##.............",
".##.............",
".##.............",
".##.............",
"................"};
