/* XPM */
static const char*initial_big_pixmap[]={
"19 19 2 1",
"# c #000000",
". c None",
"...................",
".......#####.......",
".....#########.....",
"....###########....",
"...#############...",
"..###############..",
"..###############..",
".#################.",
".#################.",
".#################.",
".#################.",
".#################.",
"..###############..",
"..###############..",
"...#############...",
"....###########....",
".....#########.....",
".......#####.......",
"..................."};
