/* XPM */
static const char*inner_xpm[]={
"11 11 2 1",
"# c #000000",
". c None",
"...#####...",
"..#..#..#..",
".#...#...#.",
"#....#....#",
"#....#....#",
"###########",
"#....#....#",
"#....#....#",
".#...#...#.",
"..#..#..#..",
"...#####...",};
