/* XPM */
static const char*join_button[]={
"16 16 2 1",
"# c #000000",
". c None",
"................",
"...#............",
"....#..#........",
".....#.#........",
"########........",
".....#.#....#...",
"....#..#.....#..",
"...#...#......#.",
".......#########",
"...#...#......#.",
"....#..#.....#..",
".....#.#....#...",
"########........",
".....#.#........",
"....#..#........",
"...#............"};
