/* XPM */
static const char*joinfork_big_pixmap[]={
"15 25 2 1",
"# c #000000",
". c None",
"...............",
"......###......",
"......###......",
"......###......",
"......###......",
"......###......",
"......###......",
"......###......",
"......###......",
"......###......",
"......###......",
"......###......",
"......###......",
"......###......",
"......###......",
"......###......",
"......###......",
"......###......",
"......###......",
"......###......",
"......###......",
"......###......",
"......###......",
"......###......",
"..............."};
