/* XPM */
static const char*joinfork_horiz_big_pixmap[]={
"25 15 2 1",
"# c #000000",
". c None",
".........................",
".........................",
".........................",
".........................",
".........................",
".........................",
".#######################.",
".#######################.",
".#######################.",
".........................",
".........................",
".........................",
".........................",
".........................",
"........................."};

