/* XPM */
static const char*joinfork_horiz_pixmap[]={
"18 15 2 1",
"# c #000000",
". c None",
"..................",
"..................",
"..................",
"..................",
"..................",
"..................",
".################.",
".################.",
".################.",
"..................",
"..................",
"..................",
"..................",
"..................",
".................."};
