/* XPM */
static const char*junction_pixmap[]={
"15 15 2 1",
"# c #000000",
". c None",
"...............",
"...............",
"...............",
"......###......",
"....#######....",
"....#######....",
"...#########...",
"...#########...",
"...#########...",
"....#######....",
"....#######....",
"......###......",
"...............",
"...............",
"..............."};
