/* XPM */
static const char*left_un_xpm[]={
"16 16 3 1",
"# c #cccccc",
". c None",
"a c #c0ffff",
"......##........",
".....###........",
"....####........",
"...##a##........",
"..##aa##########",
".##aaa##########",
"##aaaaaaaaaaaa##",
"#aaaaaaaaaaaaa##",
"#aaaaaaaaaaaaa##",
".#aaaaaaaaaaaa##",
"..#aaa#########.",
"...#aa#.........",
"....#a#.........",
".....##.........",
"......#.........",
"................"};
