/* XPM */
static const char*lightmediumblue_xpm[]={
"40 16 3 1",
"# c #000000",
"_ c #90ccff",
". c #ffffff",
"........................................",
"........................................",
"########################################",
"#______________________________________#",
"#______________________________________#",
"#______________________________________#",
"#______________________________________#",
"#______________________________________#",
"#______________________________________#",
"#______________________________________#",
"#______________________________________#",
"#______________________________________#",
"#______________________________________#",
"########################################",
"........................................",
"........................................",
};


