/* XPM */
static const char*packageoperation_xpm[]={
"16 16 3 1",
"_ c #00ffff",
"# c #000000",
". c None",
"................",
"................",
"................",
"................",
"................",
"________________",
"________________",
"__#_#___________",
"_#___#_____#___#",
"_#___#____#_#_#_",
"_#___#___#___#__",
"_#___#__________",
"__#_#___________",
"________________",
"________________",
"................"};
