/* XPM */
static const char*packageembeddedclass_xpm[]={
"16 16 2 1",
"# c #000000",
"_ c #ffffff",
"________________",
"________________",
"________________",
"________________",
"#########_______",
"#_______#_______",
"#_______#_______",
"#########_______",
"#_______#__#___#",
"#########_#_#_#_",
"#_______#_#__#__",
"#_______#_______",
"#_______#_______",
"#########_______",
"________________",
"________________"};
