/* XPM */
static const char*packageembeddedtemplate_xpm[]={
"16 16 2 1",
"# c #000000",
"_ c #ffffff",
"________________",
"________________",
"_____######_____",
"_____#____#_____",
"######____#_____",
"#____######_____",
"#_______#_______",
"#########_______",
"#_______#__#___#",
"#########_#_#_#_",
"#_______#_#__#__",
"#_______#_______",
"#_______#_______",
"#########_______",
"________________",
"________________"};
