/* XPM */
static const char*packageattribute_xpm[]={
"16 16 3 1",
"_ c #00ff00",
"# c #000000",
". c None",
"................",
"................",
"................",
"................",
"................",
"________________",
"________________",
"__###___________",
"_____#_____#___#",
"___###____#_#_#_",
"__#__#___#___#__",
"__#__#__________",
"___##_#_________",
"________________",
"________________",
"................"};
