/* XPM */
static const char*packagerelation_xpm[]={
"16 16 3 1",
"# c #000000",
"_ c #ffffc0",
". c None",
"................",
"................",
"................",
"................",
"................",
"________________",
"________________",
"____#___________",
"___###_____#___#",
"__#_#_#___#_#_#_",
"____#____#___#__",
"____#___________",
"____#___________",
"________________",
"________________",
"................"};
