/* XPM */
static const char*parameterset_xpm[]={
"16 16 3 1",
"# c #000000",
"_ c #ffffff",
". c None",
"..........#_____",
"..........#_____",
"..........#_____",
".....######_____",
".....#____#_____",
".....#_####_____",
".....#_#__#_____",
".....#_####_____",
".....#____#_____",
".....#_####_____",
".....#_#__#_____",
".....#_####_____",
".....#____#_____",
".....######_____",
"..........#_____",
"..........#_____"};
