/* XPM */
static const char*pomme[]={
"16 16 2 1",
"# c #000000",
". c None",
".###........###.",
"#...#......#...#",
"#...#......#...#",
"#...#......#...#",
".##############.",
"....#......#....",
"....#......#....",
"....#......#....",
"....#......#....",
"....#......#....",
"....#......#....",
".##############.",
"#...#......#...#",
"#...#......#...#",
"#...#......#...#",
".###........###."};
