/* XPM */
static const char*privateattribute_xpm[]={
"16 16 3 1",
"_ c #00ff00",
"# c #000000",
". c None",
"................",
"................",
"................",
"................",
"................",
"________________",
"________________",
"__###___________",
"_____#__________",
"___###__________",
"__#__#____#####_",
"__#__#__________",
"___##_#_________",
"________________",
"________________",
"................"};

