/* XPM */
static const char*privateoperation_xpm[]={
"16 16 3 1",
"_ c #00ffff",
"a c #000000",
". c None",
"................",
"................",
"................",
"................",
"................",
"________________",
"________________",
"__a_a___________",
"_a___a__________",
"_a___a__________",
"_a___a____aaaaa_",
"_a___a__________",
"__a_a___________",
"________________",
"________________",
"................"};
