/* XPM */
static const char*privaterelation_xpm[]={
"16 16 3 1",
"a c #000000",
"# c #ffffc0",
". c None",
"................",
"................",
"................",
"................",
"................",
"################",
"################",
"####a###########",
"###aaa##########",
"##a#a#a#########",
"####a#####aaaaa#",
"####a###########",
"####a###########",
"################",
"################",
"................"};
