/* XPM */
static const char*profile_xpm[]={
"16 16 3 1",
"# c #000000",
"_ c #ffffc0",
". c None",
".#########......",
"#_________#.....",
"#__________####.",
"#______________#",
"#____#_#_______#",
"#___#_#________#",
"#__#_#_________#",
"#_#_#___#_#____#",
"#__#_#___#_#___#",
"#___#_#___#_#__#",
"#____#_#___#_#_#",
"#_________#_#__#",
"#________#_#___#",
"#_______#_#____#",
"#______________#",
"################"};
