/* XPM */
static const char*protectedattribute_xpm[]={
"16 16 3 1",
"_ c #00ff00",
"# c #000000",
". c None",
"................",
"................",
"................",
"................",
"................",
"________________",
"___________#_#__",
"__###______#_#__",
"_____#____#####_",
"___###_____#_#__",
"__#__#____#####_",
"__#__#_____#_#__",
"___##_#____#_#__",
"________________",
"________________",
"................"};
