/* XPM */
static const char*protectedoperation_xpm[]={
"16 16 3 1",
"_ c #00ffff",
"# c #000000",
". c None",
"................",
"................",
"................",
"................",
"................",
"________________",
"___________#_#__",
"__#_#______#_#__",
"_#___#____#####_",
"_#___#_____#_#__",
"_#___#____#####_",
"_#___#_____#_#__",
"__#_#______#_#__",
"________________",
"________________",
"................"};
