/* XPM */
static const char*protectedrelation_xpm[]={
"16 16 3 1",
"a c #000000",
"# c #ffffc0",
". c None",
"................",
"................",
"................",
"................",
"................",
"################",
"###########a#a##",
"####a######a#a##",
"###aaa####aaaaa#",
"##a#a#a####a#a##",
"####a#####aaaaa#",
"####a######a#a##",
"####a######a#a##",
"################",
"################",
"................"};
