/* XPM */
static const char*provided_xpm[]={
"19 19 2 1",
"# c #000000",
". c None",
"...................",
"...................",
"...................",
"...................",
".......#####.......",
"......#.....#......",
".....#.......#.....",
"....#.........#....",
"....#.........#....",
"....#.........#....",
"....#.........#....",
"....#.........#....",
".....#.......#.....",
"......#.....#......",
".......#####.......",
"...................",
"...................",
"...................",
"..................."};
