/* XPM */
static const char*publicattribute_xpm[]={
"16 16 3 1",
"_ c #00ff00",
"# c #000000",
". c None",
"................",
"................",
"................",
"................",
"................",
"________________",
"________________",
"__###___________",
"_____#______#___",
"___###______#___",
"__#__#____#####_",
"__#__#______#___",
"___##_#_____#___",
"________________",
"________________",
"................"};
