/* XPM */
static const char*publicoperation_xpm[]={
"16 16 3 1",
"_ c #00ffff",
"# c #000000",
". c None",
"................",
"................",
"................",
"................",
"................",
"________________",
"________________",
"__#_#___________",
"_#___#______#___",
"_#___#______#___",
"_#___#____#####_",
"_#___#______#___",
"__#_#_______#___",
"________________",
"________________",
"................"};

