/* XPM */
static const char*shallowhistory_big_pixmap[]={
"25 25 3 1",
"# c #000000",
"_ c #ffffff",
". c None",
".........................",
"..........#####..........",
".......###_____###.......",
"......#___________#......",
"....##_____________##....",
"....#_______________#....",
"...#_________________#...",
"..#___________________#..",
"..#_____#______#______#..",
"..#_____#______#______#..",
".#______#______#_______#.",
".#______#______#_______#.",
".#______########_______#.",
".#______#______#_______#.",
".#______#______#_______#.",
"..#_____#______#______#..",
"..#_____#______#______#..",
"..#___________________#..",
"...#_________________#...",
"....#_______________#....",
"....##_____________##....",
"......#___________#......",
".......###_____###.......",
"..........#####..........",
"........................."};
