/* XPM */
static const char*shallowhistory_pixmap[]={
"17 17 3 1",
"# c #000000",
"_ c #ffffff",
". c None",
".................",
"......#####......",
"....##_____##....",
"...#_________#...",
"..#___________#..",
"..#__#_____#__#..",
".#___#_____#___#.",
".#___#_____#___#.",
".#___#######___#.",
".#___#_____#___#.",
".#___#_____#___#.",
"..#__#_____#__#..",
"..#___________#..",
"...#_________#...",
"....##_____##....",
"......#####......",
"................."};
