/* XPM */
static const char * simplerelation_xpm[] = {
"16 16 3 1",
" 	c None",
".	c #FFFFC0",
"+	c #000000",
"                ",
"                ",
"                ",
"                ",
"                ",
"................",
"................",
"....+...........",
"...+++..........",
"..+.+.+.........",
"....+...........",
"....+...........",
"....+...........",
"................",
"................",
"                "};
