/* XPM */
static const char*up_xpm[]={
"16 16 3 1",
"# c #000000",
". c None",
"a c #c0ffff",
"......###.......",
".....##aa#......",
"....##aaaa#.....",
"...##aaaaaa#....",
"..##aaaaaaaa#...",
".##aaaaaaaaaa#..",
"######aaaa#####.",
"######aaaa#.....",
"....##aaaa#.....",
"....##aaaa#.....",
"....##aaaa#.....",
"....##aaaa#.....",
"....##aaaa#.....",
"....##aaaa#.....",
"....#######.....",
"....######......"};
