/* XPM */
static const char*usecase_button[]={
"16 16 2 1",
"# c #000000",
". c None",
"................",
"................",
"................",
".....######.....",
"...##......##...",
".##..........##.",
"#..............#",
"#..............#",
"#..............#",
"#..............#",
"#..............#",
".##..........##.",
"...##......##...",
".....######.....",
"................",
"................"};
