/* XPM */
static const char*usecases_xpm[]={
"16 16 3 1",
"# c #000000",
"_ c #ffffc0",
". c None",
".#########......",
"#_________#.....",
"#__###_____####.",
"#__#_#_________#",
"#__###_________#",
"#___#__________#",
"#_#####___###__#",
"#___#_____#_#__#",
"#__#_#____###__#",
"#_#___#____#___#",
"#________#####_#",
"#__________#___#",
"#_________#_#__#",
"#________#___#_#",
"#______________#",
"################"};
